<svg width="10" height="14" viewBox="0 0 10 14" fill="none" xmlns="http://www.w3.org/2000/svg">
<path fill-rule="evenodd" clip-rule="evenodd" d="M4.1001 1C4.1001 0.447715 4.54781 0 5.1001 0C5.65238 0 6.1001 0.447715 6.1001 1V5.60223C7.04675 5.83026 7.68621 6.48448 7.95557 8H1.979C2.45026 6.48249 3.13966 5.82854 4.1001 5.60134V1ZM7.96275 9H1.96275L0.617229 13.4851C0.540236 13.7417 0.732414 14 1.00036 14H6.33458L5.72949 11.7418C5.65802 11.475 5.81631 11.2009 6.08304 11.1294C6.34977 11.0579 6.62394 11.2162 6.69541 11.4829L7.36986 14H8.92513C9.19308 14 9.38526 13.7417 9.30827 13.4851L7.96275 9Z" fill="#ED4F76"/>
</svg>
