<svg width="19" height="18" viewBox="0 0 19 18" fill="none" xmlns="http://www.w3.org/2000/svg">
<path d="M16.2501 15.7499H10.2501M11.0001 4.49989L14.0001 7.49989M3.63265 15.5734L5.07502 15.2849C5.60472 15.179 5.86957 15.126 6.11654 15.0291C6.33576 14.9431 6.54408 14.8316 6.73722 14.6969C6.95482 14.5452 7.14581 14.3542 7.52778 13.9722L15.4016 6.09841C15.6986 5.8014 15.8471 5.6529 15.9028 5.48165C15.9517 5.33102 15.9517 5.16876 15.9028 5.01812C15.8471 4.84688 15.6986 4.69837 15.4016 4.40136L14.0987 3.09841C13.8016 2.8014 13.6531 2.6529 13.4819 2.59725C13.3313 2.54831 13.169 2.54831 13.0184 2.59725C12.8471 2.6529 12.6986 2.8014 12.4016 3.09842L4.52778 10.9722C4.14581 11.3542 3.95482 11.5452 3.80306 11.7628C3.66836 11.9559 3.55687 12.1643 3.47088 12.3835C3.37401 12.6304 3.32104 12.8953 3.2151 13.425L2.92663 14.8674C2.86761 15.1624 2.83811 15.31 2.88164 15.4152C2.91971 15.5072 2.99279 15.5803 3.0848 15.6184C3.19003 15.6619 3.33757 15.6324 3.63265 15.5734Z" stroke="#ED4F76" stroke-width="2" stroke-linecap="round" stroke-linejoin="round"/>
</svg>
